HIERARCHY
ROOT Hips
{
  OFFSET 265.287 66.7526 -254.649
  CHANNELS 6 Xposition Yposition Zposition Zrotation Xrotation Yrotation
  JOINT LeftUpLeg
  {
    OFFSET 8.64259 1.95398 -2.38835
    CHANNELS 3 Zrotation Xrotation Yrotation
    JOINT LeftLeg
    {
      OFFSET 43.7702 0 0
      CHANNELS 3 Zrotation Xrotation Yrotation
      JOINT LeftFoot
      {
        OFFSET 40.6238 0 0
        CHANNELS 3 Zrotation Xrotation Yrotation
        JOINT LeftToeBase
        {
          OFFSET 12.7242 0 0
          CHANNELS 3 Zrotation Xrotation Yrotation
          End Site
          {
            OFFSET 0 0 0
          }
        }
      }
    }
  }
  JOINT RightUpLeg
  {
    OFFSET -8.2249 1.95398 -2.59336
    CHANNELS 3 Zrotation Xrotation Yrotation
    JOINT RightLeg
    {
      OFFSET 43.5653 0 0
      CHANNELS 3 Zrotation Xrotation Yrotation
      JOINT RightFoot
      {
        OFFSET 40.6238 0 0
        CHANNELS 3 Zrotation Xrotation Yrotation
        JOINT RightToeBase
        {
          OFFSET 12.7242 0 0
          CHANNELS 3 Zrotation Xrotation Yrotation
          End Site
          {
            OFFSET 0 0 0
          }
        }
      }
    }
  }
  JOINT Spine
  {
    OFFSET 0.165834 0.87714 6.61349
    CHANNELS 3 Zrotation Xrotation Yrotation
    JOINT Spine1
    {
      OFFSET 7.38963 1.71661e-005 0
      CHANNELS 3 Zrotation Xrotation Yrotation
      JOINT Spine2
      {
        OFFSET 11.9445 1.14441e-005 0
        CHANNELS 3 Zrotation Xrotation Yrotation
        JOINT Spine3
        {
          OFFSET 14.7254 4.19617e-005 0
          CHANNELS 3 Zrotation Xrotation Yrotation
          JOINT Spine4
          {
            OFFSET 10.9679 0 0
            CHANNELS 3 Zrotation Xrotation Yrotation
            JOINT RightShoulder
            {
              OFFSET 2.46616 -1.6653 3.69651
              CHANNELS 3 Zrotation Xrotation Yrotation
              JOINT RightArm
              {
                OFFSET 13.0012 0 0
                CHANNELS 3 Zrotation Xrotation Yrotation
                JOINT RightForeArm
                {
                  OFFSET 28.7848 1.52588e-005 0
                  CHANNELS 3 Zrotation Xrotation Yrotation
                  JOINT RightHand
                  {
                    OFFSET 26.5688 1.52588e-005 0
                    CHANNELS 3 Zrotation Xrotation Yrotation
                    End Site
                    {
                      OFFSET 0 0 0
                    }
                  }
                }
              }
            }
            JOINT LeftShoulder
            {
              OFFSET 2.38034 -1.29275 -3.7523
              CHANNELS 3 Zrotation Xrotation Yrotation
              JOINT LeftArm
              {
                OFFSET 16.3182 6.10351e-005 0
                CHANNELS 3 Zrotation Xrotation Yrotation
                JOINT LeftForeArm
                {
                  OFFSET 27.0901 0 0
                  CHANNELS 3 Zrotation Xrotation Yrotation
                  JOINT LeftHand
                  {
                    OFFSET 24.5451 1.52588e-005 0
                    CHANNELS 3 Zrotation Xrotation Yrotation
                    End Site
                    {
                      OFFSET 0 0 0
                    }
                  }
                }
              }
            }
            JOINT Neck
            {
              OFFSET 5.0226 -0.0266342 0
              CHANNELS 3 Zrotation Xrotation Yrotation
              JOINT Head
              {
                OFFSET 6.69364 2.86102e-005 0
                CHANNELS 3 Zrotation Xrotation Yrotation
                End Site
                {
                  OFFSET 0 0 0
                }
              }
            }
          }
        }
      }
    }
  }
}
MOTION
Frames:	14
Frame Time:	0.0416667
9.03525 77.8622 8.52724 90.849 30.9561 109.078 -161.211 56.9807 76.4756 -65.0898 7.17368 -3.09692 52.1804 -1.42793 18.8404 38.6055 -2.80192 -12.4924 172.073 -5.29131 81.8468 -40.4908 -11.9286 -3.23125 64.0724 2.37167 24.2973 76.5219 -7.34759 -1.27832 0.898343 9.68509 -91.4851 7.50698 1.1502 -2.98668 -4.16702 1.0177 -3.03435 -26.6854 1.99436 -2.50339 -6.67275 1.99435 -2.50339 101.664 -44.5603 -83.0032 19.7011 -4.51164 -22.3407 -10.709 -1.10862 -70.3562 -10.7901 -0.00247626 -5.37103 -88.3435 -48.0017 80.599 -23.2844 10.6049 7.32938 1.89568 -2.99283 -25.7532 17.5412 -0.810523 -8.47967 17.709 2.56001 -21.0158 -7.73453 7.49553 32.843 
26.5003 77.684 -0.925844 87.262 34.3315 109.784 -161.29 41.5703 74.9775 -64.8118 14.54 -5.00624 70.6054 17.0539 37.4097 32.4742 -0.0568404 -13.3155 173.899 -3.44209 81.697 -56.683 -19.2959 -3.92733 42.6741 9.8418 17.0888 49.8368 -3.00668 -3.62325 0.721029 9.50935 -91.0002 7.85945 1.00302 -2.03112 -3.81273 0.912688 -2.07328 -26.3425 1.56703 -1.63591 -6.32979 1.56702 -1.63591 102.131 -45.7975 -82.2203 18.5323 -9.53958 -11.8188 -13.8023 -1.42219 -74.2048 -11.9413 -0.00575817 -5.3195 -87.3355 -48.9842 82.315 -7.33291 8.48947 -6.16562 -0.46707 -6.88825 -22.4132 18.2279 -0.803134 -8.29404 17.6164 2.36046 -18.4662 -6.68483 6.97673 27.7409 
40.8026 79.0966 -9.08771 81.467 43.8773 107.351 -167.563 31.7311 73.2909 -68.21 18.0693 -3.84085 72.0086 15.6958 35.473 40.9463 -3.7784 -9.6247 175.392 16.6603 84.0456 -91.5307 -15.9481 -3.90696 45.3881 7.44831 4.84153 44.4645 -2.28058 -0.731752 -0.354116 10.0176 -90.1961 6.83737 -0.791268 -0.354147 -4.83337 -0.80609 -0.318988 -27.3696 -0.64823 -0.575584 -7.3569 -0.648243 -0.575582 102.024 -50.0503 -82.3866 19.5397 -8.39523 -2.06071 -14.7973 -11.5435 -53.6584 -13.2404 -0.181445 -3.69806 -87.1137 -46.6446 82.2555 8.55167 -3.42318 -24.9684 -1.1494 -10.4379 -24.6015 20.7408 -0.878579 -8.22247 24.4578 2.27107 -13.9758 -3.56312 7.09734 21.6282 
55.1075 82.5175 -20.0644 69.3285 52.154 115.847 -176.245 19.7392 78.9721 -59.0294 23.1833 -0.665294 72.1596 13.1137 28.7545 44.5584 -5.19818 -8.82908 178.29 43.9762 86.2095 -100.777 -4.79305 -3.92686 54.3016 1.29108 0.712922 47.215 -2.74188 -0.870279 -0.934014 9.67451 -90.3784 7.52393 -2.02911 -0.638092 -4.14553 -2.05523 -0.548145 -26.6896 -1.74355 -1.21856 -6.67697 -1.74353 -1.21855 103.193 -51.3861 -80.5902 23.309 -5.41233 14.2333 -18.1969 -27.3986 -41.2878 -10.431 -0.265509 -2.34674 -86.5998 -41.3037 82.1208 10.6498 -16.0101 -41.3292 2.3425 -7.23454 -34.7528 22.2877 -1.40895 -10.3994 25.9471 0.952809 -10.6145 -4.12522 4.69827 17.7054 
70.1963 86.8573 -34.989 63.6856 54.3098 124.699 -179.075 0.408394 89.8389 -33.8271 27.3475 4.74739 46.3421 -1.40783 6.47181 47.2565 -6.31017 -10.5742 -177.193 56.4778 86.493 -79.227 -5.98232 -3.56954 60.629 1.50873 11.9061 53.9845 -3.76708 -2.0426 -1.36055 9.2147 -91.0405 8.41641 -3.17417 -1.86482 -3.25175 -3.25316 -1.72324 -25.7971 -2.46712 -2.73262 -5.78445 -2.46711 -2.73262 101.755 -48.4092 -82.8284 29.862 -6.04903 32.1237 -14.156 -22.0854 -40.4939 -7.76068 -0.0507522 -4.84027 -84.7263 -39.9552 85.0611 9.29355 -21.0945 -38.1929 7.04894 -4.1125 -62.0832 24.4121 -1.32222 -9.65751 24.9543 2.34802 -11.294 -7.27143 5.6322 18.5264 
85.4338 89.0971 -51.6019 68.5897 52.7839 121.076 177.609 -8.66468 87.2693 -40.2504 19.0756 6.8522 30.3419 -9.19996 -0.805037 43.147 -4.46475 1.39111 177.142 51.9899 90.1834 -42.6811 -12.2163 1.91344 54.469 5.81093 17.4503 70.2967 -5.08998 4.02218 -1.41058 9.24692 -91.2804 8.33994 -3.379 -2.32864 -3.32843 -3.4782 -2.17761 -25.8688 -2.5233 -3.23632 -5.85619 -2.52331 -3.23633 100.287 -48.2525 -85.1535 31.1569 -7.94571 33.4512 -6.41273 -11.5159 -38.7008 -6.14931 0.0437811 -6.53504 -83.1563 -42.5185 88.016 2.85893 -11.0175 -24.1263 4.39178 -5.08913 -78.7314 23.3486 -0.6988 -6.9618 26.5922 3.42366 -14.2946 -12.5995 6.74687 23.2332 
99.9696 88.0357 -67.6796 77.1864 51.3082 112.933 178.679 1.63449 87.5568 -83.9122 9.82239 2.44868 41.3134 -4.60336 5.94201 35.5622 -1.99653 -2.09527 166.942 44.4853 95.1786 -45.5486 -12.9796 8.22128 54.9626 5.3511 9.96291 49.2481 -3.14493 -2.84984 -0.989715 9.69266 -91.1816 7.45928 -2.48792 -2.2095 -4.21098 -2.58274 -2.09788 -26.7414 -1.70915 -2.85479 -6.72878 -1.70915 -2.85479 101.749 -52.518 -82.7977 25.9029 -9.26229 19.0987 -3.31063 -5.63846 -38.9394 -6.27206 0.0363031 -6.383 -84.7846 -47.7551 86.0569 -6.09128 9.00991 -14.4239 5.42165 -5.45871 -53.912 18.7826 -1.1138 -9.84564 26.405 3.44437 -15.6194 -10.8655 7.4495 25.5289 
114.044 85.6848 -82.9432 80.8938 48.4924 114.811 177.122 25.0683 96.2388 -114.128 10.6212 0.589719 48.2479 -0.301111 16.1922 42.4099 -4.27528 -4.02752 168.052 35.2918 100.492 -59.3814 -20.763 6.7135 64.4543 -1.60344 -0.323866 56.6628 -3.66176 2.89402 -0.278398 9.75329 -91.7587 7.33112 -1.3152 -3.40179 -4.34345 -1.46354 -3.3407 -26.8433 -0.232792 -3.63948 -6.83067 -0.232811 -3.63949 102.675 -52.8928 -81.4 20.6629 -6.82364 -0.752661 -8.52891 -9.0055 -44.1274 -6.55109 -0.062344 -4.42644 -85.8175 -53.9177 85.3139 -17.1494 20.1056 -3.41071 2.46233 6.05747 -24.1675 16.8494 -0.630466 -7.43209 26.4204 4.34849 -11.2296 -9.46794 7.3048 20.0784 
128.656 86.9767 -100.576 78.6972 45.644 112.944 172.937 48.1525 95.8919 -105.768 7.88836 1.03068 58.2837 4.8828 20.0544 46.7555 -5.69399 -2.28429 174.848 17.2886 96.602 -51.4494 -16.527 1.78563 71.0836 -2.58043 8.7315 63.1577 -5.14895 -0.68625 0.228934 8.92138 -91.2436 9.04054 -0.0989989 -2.48098 -2.63282 -0.208068 -2.47423 -25.1502 0.651086 -2.39614 -5.13753 0.651078 -2.39614 102.593 -49.836 -81.4985 20.9886 -6.14258 -6.87645 -9.6746 -3.05918 -60.1926 -7.01285 0.020067 -5.85173 -84.6436 -53.3461 86.9514 -30.3918 21.1928 16.8164 4.2562 16.8853 -22.2876 12.9581 -0.220103 -5.39505 23.9263 3.00044 -10.3566 -13.1227 5.05468 16.8215 
143.716 91.6746 -119.46 81.2601 47.6466 105.203 176.475 47.3733 92.374 -62.9092 8.52761 3.24234 66.1029 6.99558 14.9308 48.3058 -5.95162 1.15633 175.268 -7.09129 88.5386 -30.0011 -16.0123 -2.18243 51.4084 6.83153 13.6794 54.7409 -3.90886 -1.17438 0.668285 8.56336 -90.3885 9.75045 1.15642 -0.85803 -1.92027 1.11754 -0.908107 -24.4588 1.3608 -0.470785 -4.44618 1.36081 -0.470777 104.312 -49.0521 -78.778 19.7576 -9.16799 -2.94822 -12.8107 0.294281 -74.9353 -5.78086 0.0631947 -7.1512 -86.6654 -49.0276 83.338 -34.0299 19.4406 29.3568 5.33502 16.8225 -25.0335 10.8184 -0.29926 -6.14299 16.2156 -0.560995 -10.103 -9.08972 1.54858 15.1255 
158.619 93.5713 -137.839 86.4224 45.759 99.2295 -177.088 36.964 93.0586 -17.4964 16.2988 2.66721 53.4883 -0.78784 11.0341 59.7273 -8.57554 5.4712 174.527 -15.975 85.7931 -45.2423 -13.1763 -5.04008 44.3297 7.98053 13.3605 47.985 -2.73554 0.582392 0.905275 8.52207 -89.8199 9.82886 1.88615 0.20623 -1.84073 1.89339 0.122983 -24.3854 1.73693 0.763725 -4.37279 1.73691 0.763715 104.137 -48.565 -79.0355 18.8382 -16.6288 -0.585889 -15.347 0.929997 -76.1681 -4.99528 0.0755751 -7.78779 -87.6683 -48.274 81.6858 -28.3273 18.9365 29.7241 2.61984 12.2965 -22.6462 7.57156 -0.349679 -7.34805 11.8187 -1.44616 -13.2278 -8.88838 1.06671 15.3819 
172.321 90.9132 -154.192 93.3211 46.8676 91.3398 -171.521 36.8611 91.2377 -27.9083 12.0697 -1.18798 52.7513 -2.16971 11.3864 55.9185 -7.14799 7.00419 177.172 -7.56787 90.9651 -88.8376 -12.9978 -5.42384 38.7885 9.23766 11.784 41.9058 -1.88714 3.40675 0.295115 8.98655 -89.1677 8.89029 0.958808 1.58601 -2.7814 1.02767 1.54228 -25.3072 0.437944 1.80077 -5.29457 0.437968 1.80078 103.489 -48.786 -80.0673 22.1271 -17.296 3.66796 -18.6863 -4.65402 -68.1251 -5.61644 -0.0246349 -5.14395 -87.9215 -46.0747 80.8837 -20.7961 21.8068 17.8177 0.660837 11.4676 -19.8014 14.393 -0.37272 -6.36812 12.6353 -0.936457 -17.5235 -9.44274 2.64386 15.9047 
184.227 85.837 -170.368 100.413 54.9741 76.2714 -170.18 35.0773 78.7707 -55 23.3922 -3.7635 60.6855 4.97959 30.3325 43.5464 -4.80923 -5.23619 176.414 9.59673 79.3967 -118.576 -19.7395 -3.44908 34.7805 11.7508 14.188 39.761 -1.63208 3.05711 -0.834104 9.56998 -88.1628 7.73825 -0.864969 3.67386 -3.9376 -0.702568 3.70829 -26.4422 -1.92869 3.2448 -6.4296 -1.92868 3.2448 104.451 -52.8698 -78.7278 23.7412 -9.18542 10.6216 -15.9525 -14.5797 -49.6863 -6.28036 -0.0693966 -4.16223 -88.3562 -49.1518 80.7969 2.34088 20.0262 -14.135 -3.63722 14.2249 -10.6857 18.4275 -0.0770502 -4.25264 14.3797 -2.66986 -20.4293 -5.39519 2.52145 18.7251 
195.984 84.785 -186.766 102.279 56.0129 73.5063 -171.629 22.4848 79.0803 -63.9699 24.7261 -2.84555 72.9653 15.7143 36.4273 48.3705 -6.0077 0.141197 -176.998 36.4267 84.0833 -114.8 -16.4629 -3.90676 38.5833 9.76137 16.8302 39.35 -1.71997 8.93754 -0.763353 9.49368 -88.23 7.87413 -0.751496 3.53215 -3.80142 -0.595412 3.56175 -26.3062 -1.77772 3.14366 -6.29356 -1.77775 3.14366 106.278 -53.6263 -76.0428 23.9707 -0.109357 14.8942 -21.1757 -43.1738 -34.0727 -0.570752 -0.0184226 -1.88811 -90.5022 -51.2395 78.009 3.9746 6.25777 -33.153 4.06661 11.9012 -18.4499 17.867 -0.135501 -4.82168 4.33522 -4.50427 -22.4301 10.616 3.01988 25.9262 
